<svg width="" height="" viewBox="0 0 1119 257" fill="none" xmlns="http://www.w3.org/2000/svg">
<path d="M256.003 128.001C256.003 198.695 198.695 256.003 128.001 256.003C57.3082 256.003 0 198.695 0 128.001C0 57.3082 57.3082 0 128.001 0C198.695 0 256.003 57.3082 256.003 128.001Z" fill="#288FC6"/>
<path d="M128.001 0L238.854 192.002H17.1489L128.001 0Z" fill="#3CCCB9"/>
<path d="M543.643 128.001C543.643 198.695 486.334 256.003 415.641 256.003C344.948 256.003 287.64 198.695 287.64 128.001C287.64 57.3082 344.948 0 415.641 0C486.334 0 543.643 57.3082 543.643 128.001Z" fill="#288FC6"/>
<path d="M506.293 37.6266V218.489H325.431V37.6266H506.293Z" fill="#3CCCB9"/>
<path d="M831.003 128.197C831.003 198.89 773.695 256.198 703.001 256.198C632.308 256.198 575 198.89 575 128.197C575 57.5039 632.308 0.195679 703.001 0.195679C773.695 0.195679 831.003 57.5039 831.003 128.197Z" fill="#288FC6"/>
<path d="M703.001 0.195679L824.738 88.6425L778.239 231.752H627.764L581.265 88.6425L703.001 0.195679Z" fill="#3CCCB9"/>
<path d="M1118.94 128.001C1118.94 198.695 1061.63 256.003 990.94 256.003C920.247 256.003 862.938 198.695 862.938 128.001C862.938 57.3082 920.247 0 990.94 0C1061.63 0 1118.94 57.3082 1118.94 128.001Z" fill="#288FC6"/>
<path d="M1054.64 17.3028L1118.59 128.058L1054.64 238.812L926.755 238.812L862.81 128.058L926.755 17.3028L1054.64 17.3028Z" fill="#3CCCB9"/>
</svg>
